<svg width="14" height="21" viewBox="0 0 14 21" fill="none" xmlns="http://www.w3.org/2000/svg">
<path d="M8.04762 6.5L5.95578 6.5C5.80839 7.27681 5.57596 7.96087 5.2585 8.55217C4.94104 9.14348 4.52154 9.59565 4 9.9087L4 11.1261C4.36281 11.3232 4.66893 11.5957 4.91837 11.9435C5.17914 12.2913 5.39456 12.6797 5.56463 13.1087C5.73469 13.5493 5.86508 14.013 5.95578 14.5L8.14966 14.5C8.04762 14.1174 7.91156 13.729 7.7415 13.3348C7.57143 12.9522 7.36168 12.5928 7.11224 12.2565C6.86281 11.9203 6.55669 11.6246 6.19388 11.3696L6.19388 11.3L14 11.4913L14 9.50869L6.19388 9.71739L6.19388 9.64783C6.54535 9.45072 6.84014 9.17826 7.07823 8.83043C7.31633 8.48261 7.51474 8.1058 7.67347 7.7C7.8322 7.2942 7.95692 6.8942 8.04762 6.5Z" fill="currentColor"/>
</svg>
