<svg width="32" height="32" viewBox="0 0 32 32" fill="none" xmlns="http://www.w3.org/2000/svg">
<path fill-rule="evenodd" clip-rule="evenodd" d="M17.0669 22.601L13.1247 19.6767C13.1896 19.5492 13.293 19.4268 13.3931 19.3362C16.2537 16.7423 19.1196 14.1535 21.9857 11.5644C22.7144 10.9062 23.4431 10.2479 24.1717 9.58954C24.3051 9.46954 24.4624 9.17354 24.3797 9.01754C24.2864 8.84154 23.8557 8.89488 23.6771 9.00688C23.3011 9.24359 22.9252 9.48031 22.5492 9.71703C18.3599 12.3548 14.1711 14.9923 9.98774 17.6388C9.70774 17.8148 9.36507 17.8575 9.0504 17.7562C7.94487 17.401 6.83563 17.0568 5.72624 16.7127C4.94908 16.4716 4.17184 16.2304 3.39574 15.9855C3.37547 15.9791 3.35502 15.9727 3.33443 15.9662C2.91526 15.8346 2.44543 15.6871 2.3984 15.1748C2.3464 14.6135 2.82774 14.3468 3.2624 14.1722C4.79591 13.5536 6.33862 12.9586 7.88067 12.3638C8.10039 12.2791 8.32008 12.1943 8.53974 12.1095C14.8757 9.66821 21.2117 7.22821 27.5477 4.78821C27.7369 4.71562 27.9824 4.66746 28.1904 4.62666C28.2155 4.62174 28.24 4.61694 28.2637 4.61221C28.9277 4.47887 29.5251 4.81221 29.5904 5.48421C29.6397 5.97621 29.5531 6.52421 29.4504 7.01087C28.2397 12.7696 27.0144 18.526 25.7891 24.2834C25.6784 24.8031 25.5677 25.323 25.4571 25.8428C25.0971 27.5388 24.2251 27.8602 22.8211 26.8242C21.3144 25.7116 18.1001 23.3575 17.0669 22.601Z" fill="currentColor"/>
<path d="M13.6681 25.2166L16.7401 22.3619C16.7401 22.3619 16.8597 22.4494 17.0673 22.6014L13.1251 19.677C13.0897 19.7466 13.0658 19.8177 13.0601 19.8859C12.9601 21.1113 12.8108 23.3153 12.7148 24.7659C12.6801 25.2793 13.2921 25.5673 13.6681 25.2166Z" fill="currentColor"/>
</svg>
