<svg width="32" height="32" viewBox="0 0 32 32" fill="none" xmlns="http://www.w3.org/2000/svg">
<path fill-rule="evenodd" clip-rule="evenodd" d="M8.76693 15.3739C9.20693 16.9872 10.1269 18.4139 11.3536 19.4805C11.897 19.9593 12.5032 20.3627 13.1478 20.6664C13.187 20.6848 13.2234 20.7087 13.2603 20.7315C13.3092 20.7615 13.358 20.7811 13.407 20.8005C14.047 21.0939 14.7136 21.3072 15.4336 21.4272C15.9136 21.5205 16.407 21.5605 16.9136 21.5605C17.8336 21.5605 18.7136 21.4139 19.5403 21.1339C19.9136 21.0272 20.2603 20.8805 20.607 20.7072C20.927 20.5605 21.2203 20.4005 21.5136 20.2005C21.847 19.9872 22.167 19.7605 22.4603 19.4939C24.087 18.0939 25.167 16.0805 25.3536 13.8139C25.3803 13.5739 25.3936 13.3339 25.3936 13.0806C25.3936 12.5739 25.3536 12.0806 25.2603 11.6006C24.567 7.6139 21.087 4.58723 16.9136 4.58723C12.7403 4.58723 9.26026 7.6139 8.56693 11.6006C8.47359 12.0806 8.43359 12.5739 8.43359 13.0806V13.2139C8.43359 13.4139 8.44693 13.6139 8.47359 13.8139C8.51359 14.3472 8.60693 14.8672 8.76693 15.3739Z" fill="#FF6969"/>
<path fill-rule="evenodd" clip-rule="evenodd" d="M13.2515 27.6993C13.249 27.696 13.245 27.694 13.2408 27.694C13.2366 27.694 13.2327 27.692 13.2302 27.6887C12.0578 26.1064 11.3248 24.1948 11.1946 22.1175C11.1837 21.9441 11.0936 21.7851 10.9505 21.6865C9.27379 20.532 7.95889 18.8872 7.18083 16.974C7.05122 16.6427 6.93327 16.2999 6.83329 15.9495C6.72003 15.5525 6.22953 15.3855 5.94839 15.6877C5.29854 16.3863 4.76235 17.2008 4.39019 18.098C4.38399 18.1129 4.37229 18.1276 4.36257 18.1405C4.35277 18.1536 4.35091 18.1684 4.34463 18.1835C3.92393 19.1908 3.6875 20.3027 3.6875 21.454C3.6875 26.1207 7.48751 29.934 12.1675 29.934C12.7949 29.934 13.4108 29.8656 14.0005 29.7327C14.0207 29.7281 14.0476 29.7209 14.0799 29.7115C14.4427 29.6057 14.528 29.1315 14.2596 28.8656C13.892 28.5013 13.5524 28.1115 13.2515 27.6993Z" fill="#ADF2AD"/>
<path fill-rule="evenodd" clip-rule="evenodd" d="M29.7416 18.9073C29.368 17.6904 28.7208 16.5931 27.8755 15.6837C27.5954 15.3825 27.1083 15.5473 26.9964 15.9431C26.303 18.3952 24.7291 20.4843 22.635 21.8407C22.235 22.1073 21.8216 22.3473 21.395 22.5473C21.1016 22.694 20.8083 22.814 20.515 22.9207C20.0483 23.094 19.5816 23.2273 19.1016 23.3207C18.395 23.4807 17.6616 23.5607 16.915 23.5607C16.5816 23.5607 16.2483 23.5473 15.9283 23.5073C15.3092 23.454 14.7074 23.3408 14.1226 23.1816C13.7466 23.0792 13.3859 23.3855 13.4912 23.7607C13.8531 25.05 14.5154 26.2135 15.4038 27.1692C15.4067 27.1723 15.4107 27.174 15.4148 27.174C15.4191 27.174 15.4232 27.1759 15.4262 27.1791C15.8651 27.6704 16.3702 28.1087 16.915 28.4807C16.9683 28.5207 17.0216 28.5473 17.075 28.574C17.635 28.9607 18.2616 29.254 18.915 29.4673C19.7816 29.774 20.7016 29.934 21.6616 29.934C22.7416 29.934 23.755 29.734 24.7016 29.3607C24.795 29.334 24.875 29.3073 24.9683 29.2673C28.0083 27.974 30.1416 24.9607 30.1416 21.454C30.1416 20.574 30.0083 19.7073 29.7416 18.9073Z" fill="#4967A1"/>
</svg>
