<svg width="48" height="48" viewBox="0 0 48 48" fill="none" xmlns="http://www.w3.org/2000/svg">
<path fill-rule="evenodd" clip-rule="evenodd" d="M13.1504 23.0608C13.8104 25.4808 15.1904 27.6208 17.0304 29.2208C17.8455 29.939 18.7548 30.544 19.7216 30.9996C19.7805 31.0272 19.8351 31.063 19.8905 31.0972C19.9638 31.1422 20.037 31.1716 20.1104 31.2008C21.0704 31.6408 22.0704 31.9608 23.1504 32.1408C23.8704 32.2808 24.6104 32.3408 25.3704 32.3408C26.7504 32.3408 28.0704 32.1208 29.3104 31.7008C29.8704 31.5408 30.3904 31.3208 30.9104 31.0608C31.3904 30.8408 31.8304 30.6008 32.2704 30.3008C32.7704 29.9808 33.2504 29.6408 33.6904 29.2408C36.1304 27.1408 37.7504 24.1208 38.0304 20.7208C38.0704 20.3608 38.0904 20.0008 38.0904 19.6209C38.0904 18.8609 38.0304 18.1209 37.8904 17.4009C36.8504 11.4209 31.6304 6.88086 25.3704 6.88086C19.1104 6.88086 13.8904 11.4209 12.8504 17.4009C12.7104 18.1209 12.6504 18.8609 12.6504 19.6209V19.8209C12.6504 20.1208 12.6704 20.4208 12.7104 20.7208C12.7704 21.5208 12.9104 22.3008 13.1504 23.0608Z" fill="#FF6969"/>
<path fill-rule="evenodd" clip-rule="evenodd" d="M19.8772 41.549C19.8734 41.544 19.8675 41.541 19.8612 41.541C19.8549 41.541 19.8491 41.538 19.8453 41.533C18.0867 39.1596 16.9872 36.2922 16.7919 33.1762C16.7756 32.9162 16.6403 32.6776 16.4257 32.5298C13.9107 30.798 11.9383 28.3308 10.7713 25.461C10.5768 24.964 10.3999 24.4498 10.2499 23.9242C10.08 23.3288 9.34429 23.0782 8.92259 23.5316C7.94781 24.5794 7.14353 25.8012 6.58529 27.147C6.57599 27.1694 6.55843 27.1914 6.54385 27.2108C6.52915 27.2304 6.52637 27.2526 6.51695 27.2752C5.88589 28.7862 5.53125 30.454 5.53125 32.181C5.53125 39.181 11.2313 44.901 18.2513 44.901C19.1923 44.901 20.1162 44.7984 21.0008 44.599C21.031 44.5922 21.0714 44.5814 21.1198 44.5672C21.664 44.4086 21.792 43.6972 21.3894 43.2984C20.838 42.752 20.3286 42.1672 19.8772 41.549Z" fill="#ADF2AD"/>
<path fill-rule="evenodd" clip-rule="evenodd" d="M44.6105 28.361C44.0501 26.5356 43.0793 24.8896 41.8113 23.5256C41.3911 23.0738 40.6605 23.321 40.4927 23.9146C39.4525 27.5928 37.0917 30.7264 33.9505 32.761C33.3505 33.161 32.7305 33.521 32.0905 33.821C31.6505 34.041 31.2105 34.221 30.7705 34.381C30.0705 34.641 29.3705 34.841 28.6505 34.981C27.5905 35.221 26.4905 35.341 25.3705 35.341C24.8705 35.341 24.3705 35.321 23.8905 35.261C22.9619 35.181 22.0591 35.0112 21.1819 34.7724C20.6179 34.6188 20.0769 35.0782 20.2349 35.641C20.7777 37.575 21.7711 39.3202 23.1037 40.7538C23.1081 40.7584 23.1141 40.761 23.1203 40.761C23.1267 40.761 23.1329 40.7638 23.1373 40.7686C23.7957 41.5056 24.5533 42.163 25.3705 42.721C25.4505 42.781 25.5305 42.821 25.6105 42.861C26.4505 43.441 27.3905 43.881 28.3705 44.201C29.6705 44.661 31.0505 44.901 32.4905 44.901C34.1105 44.901 35.6305 44.601 37.0505 44.041C37.1905 44.001 37.3105 43.961 37.4505 43.901C42.0105 41.961 45.2105 37.441 45.2105 32.181C45.2105 30.861 45.0105 29.561 44.6105 28.361Z" fill="#4967A1"/>
</svg>
