<svg width="64" height="64" viewBox="0 0 64 64" fill="none" xmlns="http://www.w3.org/2000/svg">
<path fill-rule="evenodd" clip-rule="evenodd" d="M17.5339 30.7477C18.4139 33.9744 20.2539 36.8277 22.7072 38.9611C23.794 39.9187 25.0064 40.7253 26.2955 41.3328C26.374 41.3696 26.4468 41.4173 26.5207 41.4629C26.6184 41.5229 26.716 41.5621 26.8139 41.6011C28.0939 42.1877 29.4272 42.6144 30.8672 42.8544C31.8272 43.0411 32.8139 43.1211 33.8272 43.1211C35.6672 43.1211 37.4272 42.8277 39.0805 42.2677C39.8272 42.0544 40.5205 41.7611 41.2139 41.4144C41.8539 41.1211 42.4405 40.8011 43.0272 40.4011C43.6939 39.9744 44.3339 39.5211 44.9205 38.9877C48.1739 36.1877 50.3339 32.1611 50.7072 27.6277C50.7605 27.1477 50.7872 26.6677 50.7872 26.1612C50.7872 25.1479 50.7072 24.1612 50.5205 23.2012C49.1339 15.2279 42.1739 9.17448 33.8272 9.17448C25.4805 9.17448 18.5205 15.2279 17.1339 23.2012C16.9472 24.1612 16.8672 25.1479 16.8672 26.1612V26.4279C16.8672 26.8277 16.8939 27.2277 16.9472 27.6277C17.0272 28.6944 17.2139 29.7344 17.5339 30.7477Z" fill="#FF6969"/>
<path fill-rule="evenodd" clip-rule="evenodd" d="M26.5029 55.3987C26.4979 55.392 26.49 55.388 26.4816 55.388C26.4732 55.388 26.4655 55.384 26.4604 55.3773C24.1156 52.2128 22.6496 48.3896 22.3892 44.2349C22.3675 43.8883 22.1871 43.5701 21.9009 43.3731C18.5476 41.064 15.9177 37.7744 14.3617 33.948C14.1024 33.2853 13.8665 32.5997 13.6665 31.8989C13.44 31.1051 12.4591 30.7709 11.8968 31.3755C10.5971 32.7725 9.52471 34.4016 8.78039 36.196C8.76799 36.2259 8.74457 36.2552 8.72513 36.2811C8.70553 36.3072 8.70183 36.3368 8.68927 36.3669C7.84785 38.3816 7.375 40.6053 7.375 42.908C7.375 52.2413 14.9751 59.868 24.3351 59.868C25.5897 59.868 26.8216 59.7312 28.0011 59.4653C28.0413 59.4563 28.0952 59.4419 28.1597 59.4229C28.8853 59.2115 29.056 58.2629 28.5192 57.7312C27.784 57.0027 27.1048 56.2229 26.5029 55.3987Z" fill="#ADF2AD"/>
<path fill-rule="evenodd" clip-rule="evenodd" d="M59.4813 37.8147C58.7341 35.3808 57.4397 33.1861 55.749 31.3675C55.1888 30.7651 54.2146 31.0947 53.9909 31.8861C52.604 36.7904 49.4562 40.9685 45.268 43.6813C44.468 44.2147 43.6413 44.6947 42.788 45.0947C42.2013 45.388 41.6146 45.628 41.028 45.8413C40.0946 46.188 39.1613 46.4547 38.2013 46.6413C36.788 46.9613 35.3213 47.1213 33.828 47.1213C33.1613 47.1213 32.4946 47.0947 31.8546 47.0147C30.6165 46.908 29.4128 46.6816 28.2432 46.3632C27.4912 46.1584 26.7698 46.7709 26.9805 47.5213C27.7042 50.1 29.0288 52.4269 30.8056 54.3384C30.8114 54.3445 30.8194 54.348 30.8277 54.348C30.8362 54.348 30.8445 54.3517 30.8504 54.3581C31.7282 55.3408 32.7384 56.2173 33.828 56.9613C33.9346 57.0413 34.0413 57.0947 34.148 57.148C35.268 57.9213 36.5213 58.508 37.828 58.9347C39.5613 59.548 41.4013 59.868 43.3213 59.868C45.4813 59.868 47.508 59.468 49.4013 58.7213C49.588 58.668 49.748 58.6147 49.9346 58.5347C56.0146 55.948 60.2813 49.9213 60.2813 42.908C60.2813 41.148 60.0146 39.4147 59.4813 37.8147Z" fill="#4967A1"/>
</svg>
