<svg width="24" height="24" viewBox="0 0 24 24" fill="none" xmlns="http://www.w3.org/2000/svg">
<path fill-rule="evenodd" clip-rule="evenodd" d="M6.57617 11.5304C6.90617 12.7404 7.59617 13.8104 8.51617 14.6104C8.92372 14.9695 9.37835 15.272 9.86179 15.4998C9.89121 15.5136 9.91851 15.5315 9.94621 15.5486C9.98287 15.5711 10.0195 15.5858 10.0562 15.6004C10.5362 15.8204 11.0362 15.9804 11.5762 16.0704C11.9362 16.1404 12.3062 16.1704 12.6862 16.1704C13.3762 16.1704 14.0362 16.0604 14.6562 15.8504C14.9362 15.7704 15.1962 15.6604 15.4562 15.5304C15.6962 15.4204 15.9162 15.3004 16.1362 15.1504C16.3862 14.9904 16.6262 14.8204 16.8462 14.6204C18.0662 13.5704 18.8762 12.0604 19.0162 10.3604C19.0362 10.1804 19.0462 10.0004 19.0462 9.81043C19.0462 9.43043 19.0162 9.06043 18.9462 8.70043C18.4262 5.71043 15.8162 3.44043 12.6862 3.44043C9.55617 3.44043 6.94617 5.71043 6.42617 8.70043C6.35617 9.06043 6.32617 9.43043 6.32617 9.81043V9.91043C6.32617 10.0604 6.33617 10.2104 6.35617 10.3604C6.38617 10.7604 6.45617 11.1504 6.57617 11.5304Z" fill="#FF6969"/>
<path fill-rule="evenodd" clip-rule="evenodd" d="M9.93859 20.7745C9.93672 20.772 9.93376 20.7705 9.9306 20.7705C9.92747 20.7705 9.92453 20.769 9.92266 20.7665C9.04335 19.5798 8.4936 18.1461 8.39594 16.5881C8.38778 16.4581 8.32016 16.3388 8.21286 16.2649C6.95535 15.399 5.96917 14.1654 5.38563 12.7305C5.28842 12.482 5.19995 12.2249 5.12496 11.9621C5.04002 11.6644 4.67214 11.5391 4.46129 11.7658C3.9739 12.2897 3.57176 12.9006 3.29264 13.5735C3.28799 13.5847 3.27921 13.5957 3.27192 13.6054C3.26457 13.6152 3.26319 13.6263 3.25848 13.6376C2.94295 14.3931 2.76562 15.227 2.76562 16.0905C2.76562 19.5905 5.61564 22.4505 9.12564 22.4505C9.59616 22.4505 10.0581 22.3992 10.5004 22.2995C10.5155 22.2961 10.5357 22.2907 10.5599 22.2836C10.832 22.2043 10.896 21.8486 10.6947 21.6492C10.419 21.376 10.1643 21.0836 9.93859 20.7745Z" fill="#ADF2AD"/>
<path fill-rule="evenodd" clip-rule="evenodd" d="M22.3052 14.1805C22.025 13.2678 21.5396 12.4448 20.9056 11.7628C20.6955 11.5369 20.3302 11.6605 20.2463 11.9573C19.7262 13.7964 18.5458 15.3632 16.9752 16.3805C16.6752 16.5805 16.3652 16.7605 16.0452 16.9105C15.8252 17.0205 15.6052 17.1105 15.3852 17.1905C15.0352 17.3205 14.6852 17.4205 14.3252 17.4905C13.7952 17.6105 13.2452 17.6705 12.6852 17.6705C12.4352 17.6705 12.1852 17.6605 11.9452 17.6305C11.4809 17.5905 11.0295 17.5056 10.5909 17.3862C10.3089 17.3094 10.0384 17.5391 10.1174 17.8205C10.3888 18.7875 10.8855 19.6601 11.5518 20.3769C11.554 20.3792 11.557 20.3805 11.5601 20.3805C11.5633 20.3805 11.5664 20.3819 11.5686 20.3843C11.8978 20.7528 12.2766 21.0815 12.6852 21.3605C12.7252 21.3905 12.7652 21.4105 12.8052 21.4305C13.2252 21.7205 13.6952 21.9405 14.1852 22.1005C14.8352 22.3305 15.5252 22.4505 16.2452 22.4505C17.0552 22.4505 17.8152 22.3005 18.5252 22.0205C18.5952 22.0005 18.6552 21.9805 18.7252 21.9505C21.0052 20.9805 22.6052 18.7205 22.6052 16.0905C22.6052 15.4305 22.5052 14.7805 22.3052 14.1805Z" fill="#4967A1"/>
</svg>
